Coordinates
version=1
nRows=9
nColumns=36
inDegrees=yes

Units are S.I. units (second, meters, Newtons, ...)
If the header above contains a line with 'inDegrees', this indicates whether rotational values are in degrees (yes) or radians (no).

endheader
time	pelvis_tilt	pelvis_list	pelvis_rotation	pelvis_tx	pelvis_ty	pelvis_tz	hip_flexion_r	hip_adduction_r	hip_rotation_r	knee_angle_r	knee_angle_r_beta	ankle_angle_r	subtalar_angle_r	mtp_angle_r	hip_flexion_l	hip_adduction_l	hip_rotation_l	knee_angle_l	knee_angle_l_beta	ankle_angle_l	subtalar_angle_l	mtp_angle_l	lumbar_extension	lumbar_bending	lumbar_rotation	arm_flex_r	arm_add_r	arm_rot_r	elbow_flex_r	pro_sup_r	arm_flex_l	arm_add_l	arm_rot_l	elbow_flex_l	pro_sup_l
      1.02000000	     -2.05116234	      0.89037835	      1.05563567	      1.11695350	      0.92471115	     -0.23468581	     26.51114843	      0.59466603	      4.46331039	      9.64017686	      0.16825283	      5.44098510	     -5.89399663	     -7.40220141	    -10.00075793	      6.42035726	      6.22943627	      5.02267052	      0.08766214	     14.63338727	      0.51019476	     -7.40220141	     -3.99653848	     -0.16089370	     -9.38188012	    -18.63119304	     -5.47340243	    -23.63453218	     28.42161838	     99.44161976	      7.31287835	    -11.00488006	    -18.94689772	     52.95362900	    101.53607564
      1.03000000	     -1.63202625	      0.71854759	      1.52635357	      1.12925279	      0.92347311	     -0.23496253	     25.82753695	      0.50970261	      2.47140830	      7.36400754	      0.12852618	      7.13849924	     -1.69070650	     -7.40774840	    -11.22435838	      6.06561975	      6.13254067	      5.18039873	      0.09041501	     15.22451194	      1.41297632	     -7.40774840	     -4.46656864	      0.04854229	     -9.77317073	    -18.76184624	     -5.46344616	    -24.25341959	     28.22120343	     99.62556396	      7.68042753	    -11.22653145	    -18.43111383	     53.70130598	    101.48656290
      1.04000000	     -1.63694001	      0.50045519	      2.03555476	      1.14130241	      0.92175324	     -0.23514227	     25.48823751	      0.61035299	      1.58228323	      5.29667841	      0.09244448	      7.28218093	     -0.57786729	     -7.40882276	    -11.83078543	      5.67969605	      6.30515469	      5.59161806	      0.09759215	     15.39671616	      1.41938334	     -7.40882276	     -4.46348670	      0.31937182	    -10.12940201	    -18.93130672	     -5.44830326	    -24.39887938	     27.97786112	     99.64031227	      8.10102008	    -11.30467840	    -18.07790517	     54.24720476	    101.53224480
      1.05000000	     -1.36346697	      0.21459209	      2.45944565	      1.15373037	      0.92035719	     -0.23518731	     24.88245606	      0.83905977	      0.42501599	      3.80975039	      0.06649269	      7.62249346	      0.73737714	     -7.41022823	    -12.81036055	      5.19422956	      6.34160309	      5.89999083	      0.10297427	     15.67236591	      1.62125815	     -7.41022823	     -4.74748972	      0.66740280	    -10.49876975	    -18.95914808	     -5.48146098	    -24.59981939	     27.63595327	     99.64729876	      8.33993337	    -11.45806299	    -17.55331422	     54.84823653	    101.57635286
      1.06000000	     -1.43303745	      0.10614666	      2.72610412	      1.16630161	      0.91847753	     -0.23501685	     24.79612142	      0.97897350	     -0.39588016	      3.09335312	      0.05398920	      8.00440285	      0.84011722	     -7.41061125	    -13.42817763	      4.94384321	      6.32965555	      6.19458609	      0.10811592	     15.64992930	      1.69259606	     -7.41061125	     -4.58005306	      0.77085743	    -10.55648668	    -19.17251383	     -5.45957125	    -24.66413776	     27.41889455	     99.63964832	      8.57196495	    -11.44383318	    -17.35876446	     55.25309230	    101.61341787
      1.07000000	     -0.92277096	     -0.37241155	      3.14293170	      1.17925643	      0.91739801	     -0.23506569	     24.05078726	      1.43299405	     -1.97549289	      2.87660682	      0.05020626	      8.90279581	      2.64466526	     -7.41516774	    -14.58129313	      4.18732737	      5.99068958	      6.69659156	      0.11687757	     16.19104517	      2.82965595	     -7.41516774	     -5.08336222	      1.38183909	    -10.88573746	    -19.02553110	     -5.55392019	    -24.87418187	     26.92308177	     99.68142033	      8.60286995	    -11.60633386	    -16.47666840	     55.96950275	    101.51670035
      1.08000000	     -0.79257915	     -0.73067762	      3.43020348	      1.19234303	      0.91587756	     -0.23490443	     23.67937411	      1.85631986	     -2.63206224	      2.96998215	      0.05183597	      8.95662615	      2.23608515	     -7.41588432	    -15.34456575	      3.63137022	      5.88606181	      7.15963680	      0.12495924	     16.10004731	      2.78910856	     -7.41588432	     -5.07649376	      1.81451401	    -10.96592522	    -19.08926235	     -5.59699319	    -24.93234628	     26.69228764	     99.66988551	      8.63082244	    -11.53437623	    -16.17498090	     56.36800267	    101.54363322
      1.09000000	     -0.51087320	     -1.13136448	      3.60515395	      1.20568421	      0.91461202	     -0.23451002	     23.08255350	      2.41552355	     -3.02429979	      3.22838377	      0.05634593	      8.26404163	      1.31447030	     -7.41918113	    -16.26533636	      3.02494188	      5.52460872	      7.64383439	      0.13341008	     16.17534941	      3.32289505	     -7.41918113	     -5.23721870	      2.27418456	    -11.13714096	    -18.94897756	     -5.69462403	    -24.94796077	     26.25951331	     99.65617135	      8.39917355	    -11.60401262	    -15.56901040	     56.98648295	    101.47769545
      1.10000000	     -0.45881527	     -1.46657130	      3.72372369	      1.21919065	      0.91312548	     -0.23413141	     22.76101685	      2.87974095	     -3.12972029	      3.83829154	      0.06699083	      7.90478286	      1.04724039	     -7.41952419	    -16.93530781	      2.53926907	      5.53120037	      8.16271339	      0.14246622	     15.91738807	      3.31713428	     -7.41952419	     -5.09133994	      2.68027401	    -11.14575917	    -18.97937206	     -5.78022291	    -24.97134433	     26.12940226	     99.64438811	      8.22734056	    -11.44790042	    -15.38486289	     57.16745691	    101.49286623
